<mxfile host="app.diagrams.net" agent="Mozilla/5.0 (Windows NT 10.0; Win64; x64) AppleWebKit/537.36 (KHTML, like Gecko) Chrome/131.0.0.0 Safari/537.36" version="24.9.3">
  <diagram name="Page-1" id="EpPDLjpg0aHmwE1YWelU">
    <mxGraphModel grid="1" page="1" gridSize="10" guides="1" tooltips="1" connect="1" arrows="1" fold="1" pageScale="1" pageWidth="850" pageHeight="1100" math="0" shadow="0">
      <root>
        <mxCell id="0" />
        <mxCell id="1" parent="0" />
        <mxCell id="2" value="Restaurant Architecture" style="rounded=1;arcSize=40;strokeWidth=2;fillColor=#f8cecc;strokeColor=#b85450;fontSize=19;" vertex="1" parent="1">
          <mxGeometry x="660" y="40" width="220" height="79" as="geometry" />
        </mxCell>
        <mxCell id="3" value="Frontend (React + Vite)" style="whiteSpace=wrap;strokeWidth=2;fillColor=#ffe6cc;strokeColor=#d79b00;fontSize=19;" vertex="1" parent="1">
          <mxGeometry x="360" y="200" width="190" height="49" as="geometry" />
        </mxCell>
        <mxCell id="tLVwqjxXqg0BKom8Ir9m-57" style="edgeStyle=orthogonalEdgeStyle;rounded=0;orthogonalLoop=1;jettySize=auto;html=1;exitX=0.5;exitY=0;exitDx=0;exitDy=0;entryX=0.75;entryY=1;entryDx=0;entryDy=0;fontSize=19;" edge="1" parent="1" source="4" target="2">
          <mxGeometry relative="1" as="geometry" />
        </mxCell>
        <mxCell id="4" value="Backend (Django)" style="rounded=0;arcSize=40;strokeWidth=2;fillColor=#ffe6cc;strokeColor=#d79b00;fontSize=19;" vertex="1" parent="1">
          <mxGeometry x="1000" y="200" width="180" height="49" as="geometry" />
        </mxCell>
        <mxCell id="tLVwqjxXqg0BKom8Ir9m-48" style="edgeStyle=orthogonalEdgeStyle;rounded=0;orthogonalLoop=1;jettySize=auto;html=1;exitX=0.5;exitY=0;exitDx=0;exitDy=0;entryX=0;entryY=0.5;entryDx=0;entryDy=0;fontSize=19;" edge="1" parent="1" source="5" target="3">
          <mxGeometry relative="1" as="geometry" />
        </mxCell>
        <mxCell id="tLVwqjxXqg0BKom8Ir9m-102" style="edgeStyle=orthogonalEdgeStyle;rounded=0;orthogonalLoop=1;jettySize=auto;html=1;exitX=0.5;exitY=1;exitDx=0;exitDy=0;entryX=1;entryY=0.5;entryDx=0;entryDy=0;dashed=1;dashPattern=12 12;curved=1;" edge="1" parent="1" source="5" target="tLVwqjxXqg0BKom8Ir9m-91">
          <mxGeometry relative="1" as="geometry">
            <Array as="points">
              <mxPoint x="110" y="358" />
              <mxPoint x="110" y="1070" />
              <mxPoint x="1490" y="1070" />
              <mxPoint x="1490" y="532" />
            </Array>
          </mxGeometry>
        </mxCell>
        <mxCell id="5" value="Home_page" style="whiteSpace=wrap;strokeWidth=2;fillColor=#f0a30a;fontColor=#000000;strokeColor=#BD7000;fontSize=19;" vertex="1" parent="1">
          <mxGeometry x="80" y="309" width="144" height="49" as="geometry" />
        </mxCell>
        <mxCell id="tLVwqjxXqg0BKom8Ir9m-49" style="edgeStyle=orthogonalEdgeStyle;rounded=0;orthogonalLoop=1;jettySize=auto;html=1;exitX=0.5;exitY=0;exitDx=0;exitDy=0;entryX=0.25;entryY=1;entryDx=0;entryDy=0;fontSize=19;" edge="1" parent="1" source="6" target="3">
          <mxGeometry relative="1" as="geometry" />
        </mxCell>
        <mxCell id="tLVwqjxXqg0BKom8Ir9m-53" style="edgeStyle=orthogonalEdgeStyle;rounded=0;orthogonalLoop=1;jettySize=auto;html=1;exitX=0.5;exitY=1;exitDx=0;exitDy=0;entryX=0.5;entryY=0;entryDx=0;entryDy=0;fontSize=19;" edge="1" parent="1" source="6" target="tLVwqjxXqg0BKom8Ir9m-39">
          <mxGeometry relative="1" as="geometry" />
        </mxCell>
        <mxCell id="6" value="Menu_Page" style="whiteSpace=wrap;strokeWidth=2;fillColor=#f0a30a;fontColor=#000000;strokeColor=#BD7000;fontSize=19;" vertex="1" parent="1">
          <mxGeometry x="270" y="309" width="141" height="49" as="geometry" />
        </mxCell>
        <mxCell id="tLVwqjxXqg0BKom8Ir9m-50" style="edgeStyle=orthogonalEdgeStyle;rounded=0;orthogonalLoop=1;jettySize=auto;html=1;exitX=0.5;exitY=0;exitDx=0;exitDy=0;fontSize=19;" edge="1" parent="1" source="10">
          <mxGeometry relative="1" as="geometry">
            <mxPoint x="470" y="250" as="targetPoint" />
          </mxGeometry>
        </mxCell>
        <mxCell id="tLVwqjxXqg0BKom8Ir9m-100" style="edgeStyle=orthogonalEdgeStyle;rounded=0;orthogonalLoop=1;jettySize=auto;html=1;exitX=0.5;exitY=1;exitDx=0;exitDy=0;entryX=0;entryY=0.5;entryDx=0;entryDy=0;curved=1;dashed=1;dashPattern=8 8;fontSize=19;" edge="1" parent="1" source="10" target="tLVwqjxXqg0BKom8Ir9m-90">
          <mxGeometry relative="1" as="geometry">
            <Array as="points">
              <mxPoint x="540" y="358" />
              <mxPoint x="540" y="460" />
              <mxPoint x="1158" y="460" />
            </Array>
          </mxGeometry>
        </mxCell>
        <mxCell id="10" value="Login" style="whiteSpace=wrap;strokeWidth=2;fillColor=#f0a30a;fontColor=#000000;strokeColor=#BD7000;fontSize=19;" vertex="1" parent="1">
          <mxGeometry x="487" y="309" width="98" height="49" as="geometry" />
        </mxCell>
        <mxCell id="tLVwqjxXqg0BKom8Ir9m-51" style="edgeStyle=orthogonalEdgeStyle;rounded=0;orthogonalLoop=1;jettySize=auto;html=1;exitX=0.5;exitY=0;exitDx=0;exitDy=0;entryX=1;entryY=0.5;entryDx=0;entryDy=0;fontSize=19;" edge="1" parent="1" source="11" target="3">
          <mxGeometry relative="1" as="geometry" />
        </mxCell>
        <mxCell id="tLVwqjxXqg0BKom8Ir9m-101" style="edgeStyle=orthogonalEdgeStyle;rounded=0;orthogonalLoop=1;jettySize=auto;html=1;exitX=0.5;exitY=1;exitDx=0;exitDy=0;entryX=0;entryY=0.5;entryDx=0;entryDy=0;curved=1;dashed=1;dashPattern=8 8;fontSize=19;" edge="1" parent="1" source="11" target="tLVwqjxXqg0BKom8Ir9m-89">
          <mxGeometry relative="1" as="geometry">
            <Array as="points">
              <mxPoint x="710" y="358" />
              <mxPoint x="710" y="420" />
              <mxPoint x="1158" y="420" />
            </Array>
          </mxGeometry>
        </mxCell>
        <mxCell id="11" value="Register" style="whiteSpace=wrap;strokeWidth=2;fillColor=#f0a30a;fontColor=#000000;strokeColor=#BD7000;fontSize=19;" vertex="1" parent="1">
          <mxGeometry x="657" y="309" width="119" height="49" as="geometry" />
        </mxCell>
        <mxCell id="tLVwqjxXqg0BKom8Ir9m-46" style="edgeStyle=orthogonalEdgeStyle;rounded=0;orthogonalLoop=1;jettySize=auto;html=1;exitX=0.5;exitY=0;exitDx=0;exitDy=0;entryX=0.25;entryY=1;entryDx=0;entryDy=0;exitPerimeter=0;fontSize=19;" edge="1" parent="1" source="tLVwqjxXqg0BKom8Ir9m-58" target="4">
          <mxGeometry relative="1" as="geometry">
            <mxPoint x="954.9999999999998" y="309" as="sourcePoint" />
          </mxGeometry>
        </mxCell>
        <mxCell id="tLVwqjxXqg0BKom8Ir9m-103" style="edgeStyle=orthogonalEdgeStyle;rounded=0;orthogonalLoop=1;jettySize=auto;html=1;exitX=0.5;exitY=1;exitDx=0;exitDy=0;entryX=0.5;entryY=0;entryDx=0;entryDy=0;fontSize=19;" edge="1" parent="1" source="14" target="tLVwqjxXqg0BKom8Ir9m-89">
          <mxGeometry relative="1" as="geometry" />
        </mxCell>
        <mxCell id="14" value="API" style="whiteSpace=wrap;strokeWidth=2;fillColor=#1ba1e2;fontColor=#ffffff;strokeColor=#006EAF;fontSize=19;" vertex="1" parent="1">
          <mxGeometry x="1176" y="309" width="84" height="49" as="geometry" />
        </mxCell>
        <mxCell id="tLVwqjxXqg0BKom8Ir9m-54" style="edgeStyle=orthogonalEdgeStyle;rounded=0;orthogonalLoop=1;jettySize=auto;html=1;exitX=0.5;exitY=1;exitDx=0;exitDy=0;entryX=0.5;entryY=0;entryDx=0;entryDy=0;fontSize=19;" edge="1" parent="1" source="tLVwqjxXqg0BKom8Ir9m-39" target="tLVwqjxXqg0BKom8Ir9m-45">
          <mxGeometry relative="1" as="geometry" />
        </mxCell>
        <mxCell id="tLVwqjxXqg0BKom8Ir9m-39" value="Daily Menu" style="whiteSpace=wrap;strokeWidth=2;rounded=1;fontSize=19;fillColor=#fff2cc;strokeColor=#d6b656;gradientColor=#ffd966;" vertex="1" parent="1">
          <mxGeometry x="270" y="400" width="141" height="49" as="geometry" />
        </mxCell>
        <mxCell id="tLVwqjxXqg0BKom8Ir9m-99" style="edgeStyle=orthogonalEdgeStyle;rounded=0;orthogonalLoop=1;jettySize=auto;html=1;exitX=0.5;exitY=1;exitDx=0;exitDy=0;entryX=0.5;entryY=1;entryDx=0;entryDy=0;curved=1;dashed=1;dashPattern=8 8;fontSize=19;" edge="1" parent="1" source="tLVwqjxXqg0BKom8Ir9m-92" target="tLVwqjxXqg0BKom8Ir9m-44">
          <mxGeometry relative="1" as="geometry">
            <Array as="points">
              <mxPoint x="1215" y="1020" />
              <mxPoint x="341" y="1020" />
            </Array>
          </mxGeometry>
        </mxCell>
        <mxCell id="tLVwqjxXqg0BKom8Ir9m-44" value="Â User Feedback" style="whiteSpace=wrap;strokeWidth=2;rounded=1;fontSize=19;fillColor=#fff2cc;strokeColor=#d6b656;gradientColor=#ffd966;" vertex="1" parent="1">
          <mxGeometry x="270" y="580" width="141" height="49" as="geometry" />
        </mxCell>
        <mxCell id="tLVwqjxXqg0BKom8Ir9m-55" style="edgeStyle=orthogonalEdgeStyle;rounded=0;orthogonalLoop=1;jettySize=auto;html=1;exitX=0.5;exitY=1;exitDx=0;exitDy=0;entryX=0.5;entryY=0;entryDx=0;entryDy=0;fontSize=19;" edge="1" parent="1" source="tLVwqjxXqg0BKom8Ir9m-45" target="tLVwqjxXqg0BKom8Ir9m-44">
          <mxGeometry relative="1" as="geometry" />
        </mxCell>
        <mxCell id="tLVwqjxXqg0BKom8Ir9m-45" value="User Order" style="whiteSpace=wrap;strokeWidth=2;rounded=1;fontSize=19;fillColor=#fff2cc;strokeColor=#d6b656;gradientColor=#ffd966;" vertex="1" parent="1">
          <mxGeometry x="270" y="490" width="141" height="49" as="geometry" />
        </mxCell>
        <mxCell id="tLVwqjxXqg0BKom8Ir9m-47" style="edgeStyle=orthogonalEdgeStyle;rounded=0;orthogonalLoop=1;jettySize=auto;html=1;exitX=0.5;exitY=0;exitDx=0;exitDy=0;entryX=0.688;entryY=0.993;entryDx=0;entryDy=0;entryPerimeter=0;fontSize=19;" edge="1" parent="1" source="14" target="4">
          <mxGeometry relative="1" as="geometry" />
        </mxCell>
        <mxCell id="tLVwqjxXqg0BKom8Ir9m-56" style="edgeStyle=orthogonalEdgeStyle;rounded=0;orthogonalLoop=1;jettySize=auto;html=1;exitX=0.5;exitY=0;exitDx=0;exitDy=0;entryX=0.289;entryY=1.01;entryDx=0;entryDy=0;entryPerimeter=0;fontSize=19;" edge="1" parent="1" source="3" target="2">
          <mxGeometry relative="1" as="geometry" />
        </mxCell>
        <mxCell id="tLVwqjxXqg0BKom8Ir9m-58" value="Database Models" style="shape=cylinder3;whiteSpace=wrap;html=1;boundedLbl=1;backgroundOutline=1;size=7.444444444444457;shadow=1;fillColor=#e3c800;fontColor=#000000;strokeColor=#B09500;fontSize=19;" vertex="1" parent="1">
          <mxGeometry x="890" y="310" width="110" height="60" as="geometry" />
        </mxCell>
        <mxCell id="tLVwqjxXqg0BKom8Ir9m-59" value="User" style="swimlane;fontStyle=0;childLayout=stackLayout;horizontal=1;startSize=30;horizontalStack=0;resizeParent=1;resizeParentMax=0;resizeLast=0;collapsible=1;marginBottom=0;whiteSpace=wrap;html=1;fillColor=#fff2cc;strokeColor=#d6b656;fontSize=19;" vertex="1" parent="1">
          <mxGeometry x="891" y="400" width="100" height="90" as="geometry">
            <mxRectangle x="880" y="450" width="70" height="30" as="alternateBounds" />
          </mxGeometry>
        </mxCell>
        <mxCell id="tLVwqjxXqg0BKom8Ir9m-61" value="Email" style="text;strokeColor=none;fillColor=none;align=left;verticalAlign=middle;spacingLeft=4;spacingRight=4;overflow=hidden;points=[[0,0.5],[1,0.5]];portConstraint=eastwest;rotatable=0;whiteSpace=wrap;html=1;fontSize=19;" vertex="1" parent="tLVwqjxXqg0BKom8Ir9m-59">
          <mxGeometry y="30" width="100" height="30" as="geometry" />
        </mxCell>
        <mxCell id="tLVwqjxXqg0BKom8Ir9m-62" value="User name" style="text;strokeColor=none;fillColor=none;align=left;verticalAlign=middle;spacingLeft=4;spacingRight=4;overflow=hidden;points=[[0,0.5],[1,0.5]];portConstraint=eastwest;rotatable=0;whiteSpace=wrap;html=1;fontSize=19;" vertex="1" parent="tLVwqjxXqg0BKom8Ir9m-59">
          <mxGeometry y="60" width="100" height="30" as="geometry" />
        </mxCell>
        <mxCell id="tLVwqjxXqg0BKom8Ir9m-63" value="Menu" style="swimlane;fontStyle=0;childLayout=stackLayout;horizontal=1;startSize=30;horizontalStack=0;resizeParent=1;resizeParentMax=0;resizeLast=0;collapsible=1;marginBottom=0;whiteSpace=wrap;html=1;fillColor=#fff2cc;strokeColor=#d6b656;fontSize=19;" vertex="1" parent="1">
          <mxGeometry x="891" y="512" width="100" height="120" as="geometry" />
        </mxCell>
        <mxCell id="tLVwqjxXqg0BKom8Ir9m-64" value="Category_choices" style="text;strokeColor=none;fillColor=none;align=left;verticalAlign=middle;spacingLeft=4;spacingRight=4;overflow=hidden;points=[[0,0.5],[1,0.5]];portConstraint=eastwest;rotatable=0;whiteSpace=wrap;html=1;fontSize=19;" vertex="1" parent="tLVwqjxXqg0BKom8Ir9m-63">
          <mxGeometry y="30" width="100" height="30" as="geometry" />
        </mxCell>
        <mxCell id="tLVwqjxXqg0BKom8Ir9m-65" value="name , discription" style="text;strokeColor=none;fillColor=none;align=left;verticalAlign=middle;spacingLeft=4;spacingRight=4;overflow=hidden;points=[[0,0.5],[1,0.5]];portConstraint=eastwest;rotatable=0;whiteSpace=wrap;html=1;fontSize=19;" vertex="1" parent="tLVwqjxXqg0BKom8Ir9m-63">
          <mxGeometry y="60" width="100" height="30" as="geometry" />
        </mxCell>
        <mxCell id="tLVwqjxXqg0BKom8Ir9m-66" value="price, image" style="text;strokeColor=none;fillColor=none;align=left;verticalAlign=middle;spacingLeft=4;spacingRight=4;overflow=hidden;points=[[0,0.5],[1,0.5]];portConstraint=eastwest;rotatable=0;whiteSpace=wrap;html=1;fontSize=19;" vertex="1" parent="tLVwqjxXqg0BKom8Ir9m-63">
          <mxGeometry y="90" width="100" height="30" as="geometry" />
        </mxCell>
        <mxCell id="tLVwqjxXqg0BKom8Ir9m-67" value="Feedback" style="swimlane;fontStyle=0;childLayout=stackLayout;horizontal=1;startSize=30;horizontalStack=0;resizeParent=1;resizeParentMax=0;resizeLast=0;collapsible=1;marginBottom=0;whiteSpace=wrap;html=1;fontSize=19;" vertex="1" parent="1">
          <mxGeometry x="890" y="654" width="100" height="120" as="geometry" />
        </mxCell>
        <mxCell id="tLVwqjxXqg0BKom8Ir9m-68" value="user_id" style="text;strokeColor=#d6b656;fillColor=#fff2cc;align=left;verticalAlign=middle;spacingLeft=4;spacingRight=4;overflow=hidden;points=[[0,0.5],[1,0.5]];portConstraint=eastwest;rotatable=0;whiteSpace=wrap;html=1;fontSize=19;" vertex="1" parent="tLVwqjxXqg0BKom8Ir9m-67">
          <mxGeometry y="30" width="100" height="30" as="geometry" />
        </mxCell>
        <mxCell id="tLVwqjxXqg0BKom8Ir9m-69" value="rating" style="text;strokeColor=none;fillColor=none;align=left;verticalAlign=middle;spacingLeft=4;spacingRight=4;overflow=hidden;points=[[0,0.5],[1,0.5]];portConstraint=eastwest;rotatable=0;whiteSpace=wrap;html=1;fontSize=19;" vertex="1" parent="tLVwqjxXqg0BKom8Ir9m-67">
          <mxGeometry y="60" width="100" height="30" as="geometry" />
        </mxCell>
        <mxCell id="tLVwqjxXqg0BKom8Ir9m-70" value="comment" style="text;strokeColor=none;fillColor=none;align=left;verticalAlign=middle;spacingLeft=4;spacingRight=4;overflow=hidden;points=[[0,0.5],[1,0.5]];portConstraint=eastwest;rotatable=0;whiteSpace=wrap;html=1;fontSize=19;" vertex="1" parent="tLVwqjxXqg0BKom8Ir9m-67">
          <mxGeometry y="90" width="100" height="30" as="geometry" />
        </mxCell>
        <mxCell id="tLVwqjxXqg0BKom8Ir9m-71" value="Order" style="swimlane;fontStyle=0;childLayout=stackLayout;horizontal=1;startSize=30;horizontalStack=0;resizeParent=1;resizeParentMax=0;resizeLast=0;collapsible=1;marginBottom=0;whiteSpace=wrap;html=1;fillColor=#fff2cc;strokeColor=#d6b656;fontSize=19;" vertex="1" parent="1">
          <mxGeometry x="890" y="800" width="100" height="120" as="geometry" />
        </mxCell>
        <mxCell id="tLVwqjxXqg0BKom8Ir9m-72" value="user_id" style="text;strokeColor=none;fillColor=none;align=left;verticalAlign=middle;spacingLeft=4;spacingRight=4;overflow=hidden;points=[[0,0.5],[1,0.5]];portConstraint=eastwest;rotatable=0;whiteSpace=wrap;html=1;fontSize=19;" vertex="1" parent="tLVwqjxXqg0BKom8Ir9m-71">
          <mxGeometry y="30" width="100" height="30" as="geometry" />
        </mxCell>
        <mxCell id="tLVwqjxXqg0BKom8Ir9m-73" value="total_proce" style="text;strokeColor=none;fillColor=none;align=left;verticalAlign=middle;spacingLeft=4;spacingRight=4;overflow=hidden;points=[[0,0.5],[1,0.5]];portConstraint=eastwest;rotatable=0;whiteSpace=wrap;html=1;fontSize=19;" vertex="1" parent="tLVwqjxXqg0BKom8Ir9m-71">
          <mxGeometry y="60" width="100" height="30" as="geometry" />
        </mxCell>
        <mxCell id="tLVwqjxXqg0BKom8Ir9m-74" value="items" style="text;strokeColor=none;fillColor=none;align=left;verticalAlign=middle;spacingLeft=4;spacingRight=4;overflow=hidden;points=[[0,0.5],[1,0.5]];portConstraint=eastwest;rotatable=0;whiteSpace=wrap;html=1;fontSize=19;" vertex="1" parent="tLVwqjxXqg0BKom8Ir9m-71">
          <mxGeometry y="90" width="100" height="30" as="geometry" />
        </mxCell>
        <mxCell id="tLVwqjxXqg0BKom8Ir9m-76" style="edgeStyle=orthogonalEdgeStyle;rounded=1;orthogonalLoop=1;jettySize=auto;html=1;exitX=0;exitY=0.5;exitDx=0;exitDy=0;entryX=0;entryY=1;entryDx=0;entryDy=-7.444444444444457;entryPerimeter=0;curved=0;fontSize=19;" edge="1" parent="1" source="tLVwqjxXqg0BKom8Ir9m-61" target="tLVwqjxXqg0BKom8Ir9m-58">
          <mxGeometry relative="1" as="geometry" />
        </mxCell>
        <mxCell id="tLVwqjxXqg0BKom8Ir9m-77" style="edgeStyle=orthogonalEdgeStyle;rounded=1;orthogonalLoop=1;jettySize=auto;html=1;exitX=1;exitY=0.5;exitDx=0;exitDy=0;entryX=1;entryY=1;entryDx=0;entryDy=-7.444444444444457;entryPerimeter=0;curved=0;fontSize=19;" edge="1" parent="1" source="tLVwqjxXqg0BKom8Ir9m-65" target="tLVwqjxXqg0BKom8Ir9m-58">
          <mxGeometry relative="1" as="geometry" />
        </mxCell>
        <mxCell id="tLVwqjxXqg0BKom8Ir9m-78" style="edgeStyle=orthogonalEdgeStyle;rounded=1;orthogonalLoop=1;jettySize=auto;html=1;exitX=0;exitY=0.5;exitDx=0;exitDy=0;entryX=0;entryY=0;entryDx=0;entryDy=41.27777777777777;entryPerimeter=0;curved=0;fontSize=19;" edge="1" parent="1" source="tLVwqjxXqg0BKom8Ir9m-69" target="tLVwqjxXqg0BKom8Ir9m-58">
          <mxGeometry relative="1" as="geometry">
            <Array as="points">
              <mxPoint x="850" y="729" />
              <mxPoint x="850" y="351" />
            </Array>
          </mxGeometry>
        </mxCell>
        <mxCell id="tLVwqjxXqg0BKom8Ir9m-79" style="edgeStyle=orthogonalEdgeStyle;rounded=1;orthogonalLoop=1;jettySize=auto;html=1;exitX=1;exitY=0.5;exitDx=0;exitDy=0;entryX=1;entryY=0;entryDx=0;entryDy=41.27777777777777;entryPerimeter=0;curved=0;fontSize=19;" edge="1" parent="1" source="tLVwqjxXqg0BKom8Ir9m-73" target="tLVwqjxXqg0BKom8Ir9m-58">
          <mxGeometry relative="1" as="geometry">
            <Array as="points">
              <mxPoint x="990" y="880" />
              <mxPoint x="1040" y="880" />
              <mxPoint x="1040" y="351" />
            </Array>
          </mxGeometry>
        </mxCell>
        <mxCell id="tLVwqjxXqg0BKom8Ir9m-104" style="edgeStyle=orthogonalEdgeStyle;rounded=0;orthogonalLoop=1;jettySize=auto;html=1;exitX=0.5;exitY=1;exitDx=0;exitDy=0;fontSize=19;" edge="1" parent="1" source="tLVwqjxXqg0BKom8Ir9m-89" target="tLVwqjxXqg0BKom8Ir9m-90">
          <mxGeometry relative="1" as="geometry" />
        </mxCell>
        <mxCell id="tLVwqjxXqg0BKom8Ir9m-89" value="User Registration" style="rounded=1;whiteSpace=wrap;html=1;fillColor=#dae8fc;strokeColor=#6c8ebf;fontSize=19;" vertex="1" parent="1">
          <mxGeometry x="1158" y="380" width="120" height="40" as="geometry" />
        </mxCell>
        <mxCell id="tLVwqjxXqg0BKom8Ir9m-105" style="edgeStyle=orthogonalEdgeStyle;rounded=0;orthogonalLoop=1;jettySize=auto;html=1;exitX=0.5;exitY=1;exitDx=0;exitDy=0;entryX=0.5;entryY=0;entryDx=0;entryDy=0;fontSize=19;" edge="1" parent="1" source="tLVwqjxXqg0BKom8Ir9m-90" target="tLVwqjxXqg0BKom8Ir9m-91">
          <mxGeometry relative="1" as="geometry" />
        </mxCell>
        <mxCell id="tLVwqjxXqg0BKom8Ir9m-90" value="User Login" style="rounded=1;whiteSpace=wrap;html=1;fillColor=#dae8fc;strokeColor=#6c8ebf;fontSize=19;" vertex="1" parent="1">
          <mxGeometry x="1158" y="449" width="120" height="40" as="geometry" />
        </mxCell>
        <mxCell id="tLVwqjxXqg0BKom8Ir9m-106" style="edgeStyle=orthogonalEdgeStyle;rounded=0;orthogonalLoop=1;jettySize=auto;html=1;exitX=0.5;exitY=1;exitDx=0;exitDy=0;entryX=0.5;entryY=0;entryDx=0;entryDy=0;fontSize=19;" edge="1" parent="1" source="tLVwqjxXqg0BKom8Ir9m-91" target="tLVwqjxXqg0BKom8Ir9m-94">
          <mxGeometry relative="1" as="geometry" />
        </mxCell>
        <mxCell id="tLVwqjxXqg0BKom8Ir9m-91" value="User Logout" style="rounded=1;whiteSpace=wrap;html=1;fillColor=#dae8fc;strokeColor=#6c8ebf;fontSize=19;" vertex="1" parent="1">
          <mxGeometry x="1158" y="512" width="120" height="40" as="geometry" />
        </mxCell>
        <mxCell id="tLVwqjxXqg0BKom8Ir9m-92" value="Feedback" style="rounded=1;whiteSpace=wrap;html=1;fillColor=#dae8fc;strokeColor=#6c8ebf;fontSize=19;" vertex="1" parent="1">
          <mxGeometry x="1159" y="720" width="120" height="40" as="geometry" />
        </mxCell>
        <mxCell id="tLVwqjxXqg0BKom8Ir9m-97" style="edgeStyle=orthogonalEdgeStyle;rounded=0;orthogonalLoop=1;jettySize=auto;html=1;exitX=0;exitY=0.5;exitDx=0;exitDy=0;entryX=0;entryY=0.5;entryDx=0;entryDy=0;curved=1;dashed=1;dashPattern=8 8;fontSize=19;" edge="1" parent="1" source="tLVwqjxXqg0BKom8Ir9m-93" target="tLVwqjxXqg0BKom8Ir9m-45">
          <mxGeometry relative="1" as="geometry">
            <Array as="points">
              <mxPoint x="1100" y="670" />
              <mxPoint x="1100" y="970" />
              <mxPoint x="220" y="970" />
              <mxPoint x="220" y="515" />
            </Array>
          </mxGeometry>
        </mxCell>
        <mxCell id="tLVwqjxXqg0BKom8Ir9m-109" style="edgeStyle=orthogonalEdgeStyle;rounded=0;orthogonalLoop=1;jettySize=auto;html=1;exitX=0.5;exitY=1;exitDx=0;exitDy=0;entryX=0.5;entryY=0;entryDx=0;entryDy=0;fontSize=19;" edge="1" parent="1" source="tLVwqjxXqg0BKom8Ir9m-93" target="tLVwqjxXqg0BKom8Ir9m-92">
          <mxGeometry relative="1" as="geometry" />
        </mxCell>
        <mxCell id="tLVwqjxXqg0BKom8Ir9m-93" value="Order&amp;nbsp;" style="rounded=1;whiteSpace=wrap;html=1;fillColor=#dae8fc;strokeColor=#6c8ebf;fontSize=19;" vertex="1" parent="1">
          <mxGeometry x="1159" y="650" width="120" height="40" as="geometry" />
        </mxCell>
        <mxCell id="tLVwqjxXqg0BKom8Ir9m-96" style="edgeStyle=orthogonalEdgeStyle;rounded=0;orthogonalLoop=1;jettySize=auto;html=1;exitX=1;exitY=0.5;exitDx=0;exitDy=0;entryX=1;entryY=0.5;entryDx=0;entryDy=0;curved=1;dashed=1;dashPattern=8 8;fontSize=19;" edge="1" parent="1" source="tLVwqjxXqg0BKom8Ir9m-94" target="tLVwqjxXqg0BKom8Ir9m-39">
          <mxGeometry relative="1" as="geometry">
            <Array as="points">
              <mxPoint x="1350" y="600" />
              <mxPoint x="1350" y="980" />
              <mxPoint x="680" y="980" />
              <mxPoint x="680" y="425" />
            </Array>
          </mxGeometry>
        </mxCell>
        <mxCell id="tLVwqjxXqg0BKom8Ir9m-108" style="edgeStyle=orthogonalEdgeStyle;rounded=0;orthogonalLoop=1;jettySize=auto;html=1;exitX=0.5;exitY=1;exitDx=0;exitDy=0;fontSize=19;" edge="1" parent="1" source="tLVwqjxXqg0BKom8Ir9m-94" target="tLVwqjxXqg0BKom8Ir9m-93">
          <mxGeometry relative="1" as="geometry" />
        </mxCell>
        <mxCell id="tLVwqjxXqg0BKom8Ir9m-94" value="Menu&amp;nbsp;" style="rounded=1;whiteSpace=wrap;html=1;fillColor=#dae8fc;strokeColor=#6c8ebf;fontSize=19;" vertex="1" parent="1">
          <mxGeometry x="1158" y="580" width="122" height="40" as="geometry" />
        </mxCell>
      </root>
    </mxGraphModel>
  </diagram>
</mxfile>
